<svg width="60" height="60" viewBox="0 0 60 60" fill="none" xmlns="http://www.w3.org/2000/svg">
<circle cx="30" cy="30" r="30" fill="#F8C660"/>
<path d="M40.24 45.2C39.4133 45.2 38.6533 45 37.96 44.6C37.2667 44.2 36.7067 43.6667 36.28 43C34.4667 43.9067 32.5067 44.36 30.4 44.36C28.2133 44.36 26.2133 43.92 24.4 43.04C22.6133 42.16 21.2 40.9733 20.16 39.48C19.12 37.9867 18.6 36.3467 18.6 34.56V25.4C18.6 23.6133 19.1067 21.9733 20.12 20.48C21.16 18.9867 22.5733 17.8133 24.36 16.96C26.1733 16.08 28.1867 15.64 30.4 15.64C32.6133 15.64 34.6133 16.08 36.4 16.96C38.2133 17.8133 39.6267 18.9867 40.64 20.48C41.68 21.9733 42.2 23.6133 42.2 25.4V34.56C42.2 35.76 41.96 36.9067 41.48 38C41.0267 39.0667 40.36 40 39.48 40.8C39.8533 41.3067 40.3467 41.6933 40.96 41.96C41.6 42.2 42.2667 42.2933 42.96 42.24C42.96 43.2533 42.7333 44 42.28 44.48C41.8533 44.96 41.1733 45.2 40.24 45.2ZM36.52 37.08C37.1067 36.4133 37.4 35.56 37.4 34.52V25.48C37.4 23.7733 36.76 22.4133 35.48 21.4C34.2267 20.36 32.5333 19.84 30.4 19.84C28.2667 19.84 26.56 20.36 25.28 21.4C24.0267 22.4133 23.4 23.7733 23.4 25.48V32.6C24.44 32.2533 25.4267 32.08 26.36 32.08C28.52 32.08 30.3867 32.4533 31.96 33.2C33.56 33.9467 35.08 35.24 36.52 37.08ZM30.4 40.2C31.5733 40.2 32.72 40 33.84 39.6C32.7467 38.0267 31.6267 36.9733 30.48 36.44C29.3333 35.9067 27.88 35.64 26.12 35.64C25.4267 35.64 24.6 35.7867 23.64 36.08C24.04 37.3333 24.8267 38.3333 26 39.08C27.2 39.8267 28.6667 40.2 30.4 40.2Z" fill="#024845"/>
</svg>
