<svg width="250" height="103" viewBox="0 0 250 103" fill="none" xmlns="http://www.w3.org/2000/svg">
<circle cx="27.9472" cy="46.2396" r="27.9472" fill="#F8C660"/>
<circle cx="41.1581" cy="57.4188" r="27.9472" fill="#F8C660"/>
<circle cx="106.706" cy="47.7641" r="23.374" fill="#F8C660"/>
<circle cx="69.613" cy="55.386" r="37.0935" fill="#F8C660"/>
<circle cx="130.59" cy="65.5486" r="37.0935" fill="#F8C660"/>
<circle cx="163.109" cy="48.2722" r="37.0935" fill="#F8C660"/>
<circle cx="190.041" cy="65.0406" r="27.439" fill="#F8C660"/>
<circle cx="212.906" cy="37.0935" r="37.0935" fill="#F8C660"/>
<path d="M40.24 64.3802C39.4133 64.3802 38.6533 64.1802 37.96 63.7802C37.2667 63.3802 36.7067 62.8468 36.28 62.1802C34.4667 63.0868 32.5067 63.5402 30.4 63.5402C28.2133 63.5402 26.2133 63.1002 24.4 62.2202C22.6133 61.3402 21.2 60.1535 20.16 58.6602C19.12 57.1668 18.6 55.5268 18.6 53.7402V44.5802C18.6 42.7935 19.1067 41.1535 20.12 39.6602C21.16 38.1668 22.5733 36.9935 24.36 36.1402C26.1733 35.2602 28.1867 34.8202 30.4 34.8202C32.6133 34.8202 34.6133 35.2602 36.4 36.1402C38.2133 36.9935 39.6267 38.1668 40.64 39.6602C41.68 41.1535 42.2 42.7935 42.2 44.5802V53.7402C42.2 54.9402 41.96 56.0868 41.48 57.1802C41.0267 58.2468 40.36 59.1802 39.48 59.9802C39.8533 60.4868 40.3467 60.8735 40.96 61.1402C41.6 61.3802 42.2667 61.4735 42.96 61.4202C42.96 62.4335 42.7333 63.1802 42.28 63.6602C41.8533 64.1402 41.1733 64.3802 40.24 64.3802ZM36.52 56.2602C37.1067 55.5935 37.4 54.7402 37.4 53.7002V44.6602C37.4 42.9535 36.76 41.5935 35.48 40.5802C34.2267 39.5402 32.5333 39.0202 30.4 39.0202C28.2667 39.0202 26.56 39.5402 25.28 40.5802C24.0267 41.5935 23.4 42.9535 23.4 44.6602V51.7802C24.44 51.4335 25.4267 51.2602 26.36 51.2602C28.52 51.2602 30.3867 51.6335 31.96 52.3802C33.56 53.1268 35.08 54.4202 36.52 56.2602ZM30.4 59.3802C31.5733 59.3802 32.72 59.1802 33.84 58.7802C32.7467 57.2068 31.6267 56.1535 30.48 55.6202C29.3333 55.0868 27.88 54.8202 26.12 54.8202C25.4267 54.8202 24.6 54.9668 23.64 55.2602C24.04 56.5135 24.8267 57.5135 26 58.2602C27.2 59.0068 28.6667 59.3802 30.4 59.3802ZM64.4181 59.9802C64.4181 61.1268 64.0581 62.0068 63.3381 62.6202C62.6448 63.2335 61.5781 63.5402 60.1381 63.5402V61.0602C60.3781 60.7668 60.6848 60.3668 61.0581 59.8602L60.8181 59.7002C60.0181 60.9002 59.0315 61.8468 57.8581 62.5402C56.7115 63.2068 55.4048 63.5402 53.9381 63.5402C52.5515 63.5402 51.2981 63.2335 50.1781 62.6202C49.0848 61.9802 48.2315 61.1135 47.6181 60.0202C47.0048 58.9002 46.6981 57.6335 46.6981 56.2202V45.7002C46.6981 44.6868 47.0581 43.9535 47.7781 43.5002C48.5248 43.0468 49.6715 42.8202 51.2181 42.8202V55.9402C51.2181 57.0868 51.5515 57.9935 52.2181 58.6602C52.8848 59.3002 53.8715 59.6202 55.1781 59.6202C56.5915 59.6202 57.7381 59.1935 58.6181 58.3402C59.4981 57.4868 59.9381 56.4202 59.9381 55.1402V45.7002C59.9381 44.6868 60.2981 43.9535 61.0181 43.5002C61.7648 43.0468 62.8981 42.8202 64.4181 42.8202V59.9802ZM72.5219 40.5402C71.6419 40.5402 70.9085 40.2735 70.3219 39.7402C69.7352 39.1802 69.4419 38.4868 69.4419 37.6602C69.4419 36.8335 69.7352 36.1535 70.3219 35.6202C70.9085 35.0868 71.6419 34.8202 72.5219 34.8202C73.4019 34.8202 74.1352 35.0868 74.7219 35.6202C75.3085 36.1535 75.6019 36.8335 75.6019 37.6602C75.6019 38.4868 75.3085 39.1802 74.7219 39.7402C74.1352 40.2735 73.4019 40.5402 72.5219 40.5402ZM70.2819 45.7002C70.2819 44.6868 70.6552 43.9535 71.4019 43.5002C72.1485 43.0468 73.2685 42.8202 74.7619 42.8202V60.6602C74.7619 61.6735 74.3885 62.4068 73.6419 62.8602C72.8952 63.3135 71.7752 63.5402 70.2819 63.5402V45.7002ZM81.4528 63.1802C80.9461 63.1802 80.5328 62.9935 80.2128 62.6202C79.8928 62.2202 79.7328 61.7802 79.7328 61.3002C79.7328 60.9268 79.8661 60.5802 80.1328 60.2602L92.5728 45.5402L92.3728 45.3802L91.2928 46.5802H83.0928C82.2128 46.5802 81.5328 46.2735 81.0528 45.6602C80.5995 45.0202 80.3728 44.1935 80.3728 43.1802H95.6928C96.2528 43.1802 96.6795 43.3535 96.9728 43.7002C97.2928 44.0202 97.4528 44.4202 97.4528 44.9002C97.4528 45.3268 97.3061 45.7268 97.0128 46.1002L84.5728 60.7802L84.8128 60.9802L85.8928 59.7802H94.8128C95.6928 59.7802 96.3595 60.1002 96.8128 60.7402C97.2661 61.3535 97.4928 62.1668 97.4928 63.1802H81.4528ZM102.429 63.1802C101.923 63.1802 101.509 62.9935 101.189 62.6202C100.869 62.2202 100.709 61.7802 100.709 61.3002C100.709 60.9268 100.843 60.5802 101.109 60.2602L113.549 45.5402L113.349 45.3802L112.269 46.5802H104.069C103.189 46.5802 102.509 46.2735 102.029 45.6602C101.576 45.0202 101.349 44.1935 101.349 43.1802H116.669C117.229 43.1802 117.656 43.3535 117.949 43.7002C118.269 44.0202 118.429 44.4202 118.429 44.9002C118.429 45.3268 118.283 45.7268 117.989 46.1002L105.549 60.7802L105.789 60.9802L106.869 59.7802H115.789C116.669 59.7802 117.336 60.1002 117.789 60.7402C118.243 61.3535 118.469 62.1668 118.469 63.1802H102.429ZM124.35 71.5402C123.39 71.5402 122.644 71.2202 122.11 70.5802C121.577 69.9402 121.297 69.0068 121.27 67.7802C122.017 67.9135 122.657 67.9802 123.19 67.9802C124.257 67.9802 125.097 67.6735 125.71 67.0602C126.35 66.4735 127.03 65.3668 127.75 63.7402L128.47 62.1402L120.67 43.1802C120.857 43.0735 121.15 42.9935 121.55 42.9402C121.977 42.8602 122.337 42.8202 122.63 42.8202C123.324 42.8202 123.95 42.9802 124.51 43.3002C125.097 43.5935 125.497 44.0202 125.71 44.5802L130.35 56.6602L129.75 58.4202L130.03 58.5402L135.51 44.5802C135.75 44.0202 136.15 43.5935 136.71 43.3002C137.27 42.9802 137.897 42.8202 138.59 42.8202C138.884 42.8202 139.23 42.8602 139.63 42.9402C140.057 42.9935 140.364 43.0735 140.55 43.1802L131.59 65.0602C130.684 67.2468 129.67 68.8735 128.55 69.9402C127.43 71.0068 126.03 71.5402 124.35 71.5402ZM147.196 63.1802C146.503 63.1802 145.903 62.9268 145.396 62.4202C144.916 61.9135 144.676 61.3135 144.676 60.6202V38.5002C144.676 37.2468 145.063 36.3268 145.836 35.7402C146.636 35.1268 147.85 34.8202 149.476 34.8202V58.9802H160.796C161.943 58.9802 162.81 59.3402 163.396 60.0602C164.01 60.7535 164.316 61.7935 164.316 63.1802H147.196ZM172.879 63.5402C171.465 63.5402 170.185 63.2735 169.039 62.7402C167.892 62.2068 166.985 61.4335 166.319 60.4202C165.652 59.4068 165.319 58.2202 165.319 56.8602C165.319 55.4735 165.665 54.2735 166.359 53.2602C167.079 52.2202 168.052 51.4335 169.279 50.9002C170.505 50.3402 171.879 50.0602 173.399 50.0602C175.825 50.0602 177.865 50.8868 179.519 52.5402L179.719 52.3402C179.239 51.8602 178.852 51.5135 178.559 51.3002V50.1802C178.559 49.0068 178.159 48.0868 177.359 47.4202C176.559 46.7268 175.439 46.3802 173.999 46.3802C172.719 46.3802 171.599 46.6335 170.639 47.1402C169.679 47.6202 168.905 48.3402 168.319 49.3002C167.785 49.1135 167.332 48.8202 166.959 48.4202C166.612 48.0202 166.439 47.5935 166.439 47.1402C166.439 46.3668 166.799 45.6468 167.519 44.9802C168.239 44.3135 169.199 43.7935 170.399 43.4202C171.625 43.0202 172.945 42.8202 174.359 42.8202C177.079 42.8202 179.185 43.4735 180.679 44.7802C182.199 46.0602 182.959 47.8202 182.959 50.0602V60.4202C182.959 61.5135 182.625 62.3135 181.959 62.8202C181.292 63.3002 180.225 63.5402 178.759 63.5402V61.8202C179.239 61.3402 179.559 60.9935 179.719 60.7802L179.519 60.6202C178.665 61.5802 177.705 62.3135 176.639 62.8202C175.599 63.3002 174.345 63.5402 172.879 63.5402ZM173.919 60.1802C175.385 60.1802 176.532 59.8868 177.359 59.3002C178.212 58.7135 178.639 57.8868 178.639 56.8202C178.639 55.7535 178.212 54.9268 177.359 54.3402C176.532 53.7268 175.399 53.4202 173.959 53.4202C172.652 53.4202 171.612 53.7268 170.839 54.3402C170.092 54.9268 169.719 55.7535 169.719 56.8202C169.719 57.9135 170.092 58.7535 170.839 59.3402C171.585 59.9002 172.612 60.1802 173.919 60.1802ZM187.801 46.3802C187.801 44.0068 189.228 42.8202 192.081 42.8202V45.2602C191.761 45.6068 191.455 46.0202 191.161 46.5002L191.401 46.6602C192.175 45.4868 193.188 44.5535 194.441 43.8602C195.721 43.1668 197.121 42.8202 198.641 42.8202C200.028 42.8202 201.241 43.1268 202.281 43.7402C203.321 44.3268 204.121 45.1535 204.681 46.2202C205.268 47.2868 205.561 48.4735 205.561 49.7802V60.6602C205.561 61.6735 205.188 62.4068 204.441 62.8602C203.695 63.3135 202.575 63.5402 201.081 63.5402V50.3802C201.081 49.2868 200.748 48.4068 200.081 47.7402C199.441 47.0468 198.495 46.7002 197.241 46.7002C195.855 46.7002 194.681 47.1402 193.721 48.0202C192.761 48.8735 192.281 49.9268 192.281 51.1802V60.6602C192.281 61.6735 191.908 62.4068 191.161 62.8602C190.441 63.3135 189.321 63.5402 187.801 63.5402V46.3802ZM217.582 63.5402C216.116 63.5402 214.796 63.2468 213.622 62.6602C212.476 62.0468 211.569 61.2068 210.902 60.1402C210.262 59.0468 209.942 57.8068 209.942 56.4202V49.9002C209.942 48.5135 210.289 47.2868 210.982 46.2202C211.676 45.1535 212.622 44.3268 213.822 43.7402C215.049 43.1268 216.436 42.8202 217.982 42.8202C219.049 42.8202 220.116 43.0468 221.182 43.5002C222.249 43.9268 223.156 44.5268 223.902 45.3002L224.022 45.1002C223.862 44.8868 223.582 44.6068 223.182 44.2602V37.9802C223.182 36.9668 223.556 36.1935 224.302 35.6602C225.049 35.1002 226.182 34.8202 227.702 34.8202V60.3002C227.702 61.2602 227.369 62.0468 226.702 62.6602C226.036 63.2468 224.982 63.5402 223.542 63.5402V61.3402C223.889 60.9135 224.142 60.5535 224.302 60.2602L224.142 60.1002C223.289 61.2202 222.356 62.0735 221.342 62.6602C220.356 63.2468 219.102 63.5402 217.582 63.5402ZM218.822 59.6202C220.102 59.6202 221.156 59.3135 221.982 58.7002C222.809 58.0602 223.222 57.2735 223.222 56.3402V49.9802C223.222 49.0468 222.822 48.2735 222.022 47.6602C221.222 47.0202 220.156 46.7002 218.822 46.7002C217.409 46.7002 216.316 47.0068 215.542 47.6202C214.796 48.2335 214.422 49.0868 214.422 50.1802V56.1402C214.422 57.2602 214.796 58.1268 215.542 58.7402C216.316 59.3268 217.409 59.6202 218.822 59.6202Z" fill="#024845"/>
</svg>
